# xmcd
#
# Track frame offsets:
#	150
#	25106
#	52946
#	73991
#	89717
#	108542
#	135695
#	175237
#	197206
#	213042
#	235113
#	265529
#	298200
#	329180
#
# Disc length: 4649 seconds
#
# Revision: 1
# Processed by: cddbd v1.5.2PL0 Copyright (c) Steve Scherf et al.
# Submitted via: audiograbber 1.83.01
#
DISCID=d912270e
DTITLE=Rory Gallagher - ULTRA RARE RORY
DYEAR=1900
DGENRE=
TTITLE0=Used To Be
TTITLE1=Secret Agent 
TTITLE2=Country Mile
TTITLE3=Philby 
TTITLE4=For The Last Time
TTITLE5=Garbage Man
TTITLE6=Hands Off
TTITLE7=Do You Read Me?
TTITLE8=Wayward Child
TTITLE9=Why My "Rory" Left Me
TTITLE10=Showbizz Blues 
TTITLE11=Ghost Blues
TTITLE12=Messin' With The Kid
TTITLE13=Keychain
EXTD=\n\n\n\n\n\n\n\n\n\n\n\n\n\n\n\n\n\n\n\n\n\n\n\n\n
EXTT0=London 1972   Live
EXTT1=WDR Köln 6.10.1976  Live
EXTT2=WDR Köln 6.10.1976  Live
EXTT3=Stockholm 1981 Live
EXTT4=Maida Vale Studios , London 15.4.1971
EXTT5=
EXTT6=
EXTT7=
EXTT8=
EXTT9=
EXTT10=
EXTT11=
EXTT12=
EXTT13=
PLAYORDER=
